<?xml version="1.0" standalone="no"?>
 <!DOCTYPE svg PUBLIC "-//W3C//DTD SVG 1.1//EN" 
 "http://www.w3.org/Graphics/SVG/1.1/DTD/svg11.dtd"> 
<svg
  xmlns:svg="http://www.w3.org/2000/svg"
  xmlns="http://www.w3.org/2000/svg"
  xmlns:xlink="http://www.w3.org/1999/xlink"
  version="1.1"
  width="5.463540cm" height="3.528060cm" viewBox="0 0 54635400 35280600">
<title>SVG Picture created as Urumbu_Stepper_TMC2208-Edge_Cuts.svg date 2023/01/30 21:32:10 </title>
  <desc>Picture generated by PCBNEW </desc>
<g style="fill:#000000; fill-opacity:1.000000;stroke:#000000; stroke-opacity:1.000000;
stroke-linecap:round; stroke-linejoin:round;"
 transform="translate(0 0) scale(1 1)">
</g>
<g style="fill:#000000; fill-opacity:0.0; 
stroke:#000000; stroke-width:0.000000; stroke-opacity:1; 
stroke-linecap:round; stroke-linejoin:round;">
</g>
<g style="fill:#000000; fill-opacity:0.0; 
stroke:#000000; stroke-width:100000.000000; stroke-opacity:1; 
stroke-linecap:round; stroke-linejoin:round;">
<path d="M42380000.000000 35235800.000000 A2000000.000000 2000000.000000 0.0 0 0 44379999.999951 33235786.000000" />
<path d="M25950000 50000
L42375786 54214
" />
<circle cx="38950000.000000" cy="4650000.000000" r="1700000.000000" /> 
<circle cx="12950000.000000" cy="4650000.000000" r="1700000.000000" /> 
<path d="M54385000 21230000
L54385000 10230000
" />
<path d="M2050000 50000
L25950000 50000
" />
<path d="M2050000.000000 50000.000000 A2000000.000000 2000000.000000 0.0 0 0 50000.000000 2050000.000000" />
<circle cx="38950000.000000" cy="30650000.000000" r="1700000.000000" /> 
<path d="M44380000 21730000
L53885000 21730000
" />
<circle cx="12950000.000000" cy="30650000.000000" r="1700000.000000" /> 
<path d="M54385000.000000 10230000.000000 A500000.000000 500000.000000 0.0 0 0 53885000.000000 9730000.000000" />
<path d="M44380000 21730000
L44380000 33235786
" />
<circle cx="25950000.000000" cy="17650000.000000" r="3000000.000000" /> 
<path d="M50000 33250000
L50000 2050000
" />
<path d="M50000.000000 33250000.000000 A2000000.000000 2000000.000000 0.0 0 0 2050000.000000 35250000.000000" />
<path d="M44380000 9730000
L44375786 2054214
" />
<path d="M42380000 35235786
L2050000 35250000
" />
<path d="M44380000 9730000
L53895000 9730000
" />
<path d="M53885000.000000 21730000.000000 A500000.000000 500000.000000 0.0 0 0 54385000.000000 21230000.000000" />
<path d="M44375785.999951 2054214.000000 A1999986.000000 1999986.000000 0.0 0 0 42375786.000000 54214.000049" />
<g >
</g>
<g >
</g>
<g >
</g>
<g >
</g>
<g >
</g>
<g >
</g>
<g >
</g>
<g >
</g>
<g >
</g>
<g >
</g>
<g >
</g>
<g >
</g>
<g >
</g>
<g >
</g>
<g >
</g>
<g >
</g>
<g >
</g>
<g >
</g>
<g >
</g>
</g> 
</svg>
